<svg width="29" height="28" viewBox="0 0 29 28" fill="none" xmlns="http://www.w3.org/2000/svg">
<path d="M14.2165 0C6.36493 0 0 6.24063 0 13.9389C0 21.6371 6.36493 27.8778 14.2165 27.8778C22.0681 27.8778 28.433 21.6371 28.433 13.9389C28.433 6.24063 22.0681 0 14.2165 0ZM14.2165 2.69785C20.5527 2.69785 25.6814 7.72546 25.6814 13.9389C25.6814 20.1514 20.5537 25.1799 14.2165 25.1799C7.8803 25.1799 2.75158 20.1523 2.75158 13.9389C2.75158 7.72642 7.87933 2.69785 14.2165 2.69785ZM22.2536 10.0195L20.9618 8.74266C20.6942 8.47822 20.2587 8.47647 19.989 8.73884L11.886 16.6197L8.45848 13.2318C8.19094 12.9674 7.75539 12.9656 7.48568 13.2279L6.18332 14.4946C5.91361 14.7569 5.91183 15.1839 6.17942 15.4484L11.3834 20.5921C11.6509 20.8566 12.0865 20.8583 12.3562 20.5959L22.2498 10.9734C22.5195 10.711 22.5212 10.284 22.2536 10.0195Z" fill="white"/>
</svg>
